<svg width="117" height="109" viewBox="0 0 117 109" fill="none" xmlns="http://www.w3.org/2000/svg">
<path d="M62.0695 108.6C91.9986 108.6 116.263 84.336 116.263 54.3C116.263 24.264 91.9986 0 62.0695 0C32.1403 0 7.87634 24.264 7.87634 54.3C7.87634 84.336 32.1403 108.6 62.0695 108.6Z" fill="#F7F7F7"/>
<path d="M112.308 32.6003H19.6342C17.6033 32.6003 15.9999 30.9969 15.9999 28.966V8.12253C15.9999 6.09163 17.6033 4.48828 19.6342 4.48828H112.201C114.232 4.48828 115.835 6.09163 115.835 8.12253V28.966C115.942 30.9969 114.232 32.6003 112.308 32.6003Z" fill="white" stroke="#D5DAE5" stroke-width="2" stroke-miterlimit="10"/>
<path d="M35.6462 24H26.3639C26.1605 24 25.9999 23.4297 25.9999 22.7072V15.2928C25.9999 14.5703 26.1605 14 26.3639 14H35.6355C35.8389 14 35.9995 14.5703 35.9995 15.2928V22.7072C36.0102 23.4297 35.8389 24 35.6462 24Z" fill="#D5DAE5"/>
<path d="M64.7417 16.3825H44.2188C43.6844 16.3825 43.3637 15.9549 43.3637 15.5274V12.8551C43.3637 12.3207 43.7913 12 44.2188 12H64.7417C65.2761 12 65.5968 12.4276 65.5968 12.8551V15.5274C65.5968 16.0618 65.2761 16.3825 64.7417 16.3825Z" fill="#D5DAE5"/>
<path d="M89.1125 25.4684H44.2188C43.6844 25.4684 43.3637 25.0409 43.3637 24.6133V21.9411C43.3637 21.4066 43.7913 21.0859 44.2188 21.0859H89.1125C89.647 21.0859 89.9676 21.5135 89.9676 21.9411V24.6133C89.9676 25.1477 89.5401 25.4684 89.1125 25.4684Z" fill="#D5DAE5"/>
<path d="M112.308 104.112H19.6342C17.6033 104.112 15.9999 102.509 15.9999 100.478V79.6343C15.9999 77.6033 17.6033 76 19.6342 76H112.201C114.232 76 115.835 77.6033 115.835 79.6343V100.478C115.942 102.509 114.232 104.112 112.308 104.112Z" fill="white" stroke="#D5DAE5" stroke-width="2" stroke-miterlimit="10"/>
<path d="M36.6462 95H27.3639C27.1605 95 26.9999 94.4297 26.9999 93.7072V86.2928C26.9999 85.5703 27.1605 85 27.3639 85H36.6355C36.8389 85 36.9995 85.5703 36.9995 86.2928V93.7072C37.0102 94.4297 36.8389 95 36.6462 95Z" fill="#D5DAE5"/>
<path d="M64.7417 87.3825H44.2188C43.6844 87.3825 43.3637 86.9549 43.3637 86.5274V83.8551C43.3637 83.3207 43.7913 83 44.2188 83H64.7417C65.2761 83 65.5968 83.4276 65.5968 83.8551V86.5274C65.5968 87.0618 65.2761 87.3825 64.7417 87.3825Z" fill="#D5DAE5"/>
<path d="M89.1125 96.4684H44.2188C43.6844 96.4684 43.3637 96.0409 43.3637 95.6133V92.9411C43.3637 92.4066 43.7913 92.0859 44.2188 92.0859H89.1125C89.647 92.0859 89.9676 92.5135 89.9676 92.9411V95.6133C89.9676 96.1477 89.5401 96.4684 89.1125 96.4684Z" fill="#D5DAE5"/>
<path d="M97.3077 68.112H4.63425C2.60335 68.112 1 66.5087 1 64.4778V43.6343C1 41.6033 2.60335 40 4.63425 40H97.2008C99.2317 40 100.835 41.6033 100.835 43.6343V64.4778C100.942 66.5087 99.2317 68.112 97.3077 68.112Z" fill="white" stroke="#D5DAE5" stroke-width="2" stroke-miterlimit="10"/>
<path d="M21.6462 59H12.364C12.1606 59 12 58.4297 12 57.7072V50.2928C12 49.5703 12.1606 49 12.364 49H21.6355C21.8389 49 21.9995 49.5703 21.9995 50.2928V57.7072C22.0102 58.4297 21.8389 59 21.6462 59Z" fill="#D5DAE5"/>
<path d="M49.7418 52.3825H29.2189C28.6845 52.3825 28.3638 51.9549 28.3638 51.5274V48.8551C28.3638 48.3207 28.7914 48 29.2189 48H49.7418C50.2762 48 50.5969 48.4276 50.5969 48.8551V51.5274C50.5969 52.0618 50.2762 52.3825 49.7418 52.3825Z" fill="#D5DAE5"/>
<path d="M74.1126 61.4684H29.2189C28.6845 61.4684 28.3638 61.0409 28.3638 60.6133V57.9411C28.3638 57.4066 28.7914 57.0859 29.2189 57.0859H74.1126C74.6471 57.0859 74.9678 57.5135 74.9678 57.9411V60.6133C74.9678 61.1477 74.5402 61.4684 74.1126 61.4684Z" fill="#D5DAE5"/>
</svg>
