<svg width="24" height="34" viewBox="0 0 24 34" fill="none" xmlns="http://www.w3.org/2000/svg">
<g id="Group 1000001611">
<path id="Vector" d="M23.5986 23.3016C23.603 25.4638 23.6073 27.6217 23.5855 29.7796C23.5767 32.1589 21.4702 33.9738 19.4816 33.1011C19.381 33.0577 19.2893 33.0143 19.1931 32.9708C19.1975 32.9101 19.1975 32.8493 19.1975 32.7928C19.2237 29.6884 19.2019 26.597 19.2019 23.5013V14.8219C19.1931 10.9403 16.8855 9.08201 13.966 10.6755C10.5569 12.5381 7.17853 14.4789 3.78263 16.372C2.62007 17.0189 1.71537 17.5182 1.02483 17.9871C0.985491 13.0982 0.998602 8.20495 1.02483 3.32038C1.04231 1.14945 2.85608 -0.270329 4.7354 0.567647C10.7055 3.22486 16.6407 5.99061 22.5366 8.83886C23.0829 9.1124 23.5156 10.2804 23.5462 11.0532C23.6292 13.4152 23.6117 15.7815 23.5986 18.1521C23.5942 18.951 23.5942 19.7586 23.5942 20.5532C23.5986 21.4736 23.5986 22.3941 23.5986 23.3016Z" fill="#0000FF"/>
<path id="Vector_2" d="M19.1975 32.7889C19.1975 32.8497 19.1975 32.9105 19.1931 32.9669C18.2622 32.5544 17.3312 32.1376 16.4003 31.7208C16.4134 29.8104 16.4003 27.9 16.4003 25.9896V18.8386C16.3872 15.6386 14.486 14.1103 12.0822 15.4215C9.27636 16.9585 6.48796 18.5563 3.69083 20.1194C2.51952 20.775 1.66727 21.2396 1.06851 21.7085C1.04666 20.4667 1.03355 19.225 1.02917 17.9876C1.71972 17.5186 2.62442 17.0193 3.78261 16.3724C7.17851 14.4793 10.5613 12.5342 13.9659 10.6759C16.8854 9.08242 19.1931 10.9407 19.2018 14.8223V23.5017C19.2018 26.5974 19.2237 29.6888 19.1975 32.7933" fill="#0000FF"/>
<path id="Vector_3" d="M19.1975 32.7889C19.1975 32.8497 19.1975 32.9105 19.1931 32.9669C18.2622 32.5544 17.3312 32.1376 16.4003 31.7208C16.4134 29.8104 16.4003 27.9 16.4003 25.9896V18.8386C16.3872 15.6386 14.486 14.1103 12.0822 15.4215C9.27636 16.9585 6.48796 18.5563 3.69083 20.1194C2.51952 20.775 1.66727 21.2396 1.06851 21.7085C1.04666 20.4667 1.03355 19.225 1.02917 17.9876C1.71972 17.5186 2.62442 17.0193 3.78261 16.3724C7.17851 14.4793 10.5613 12.5342 13.9659 10.6759C16.8854 9.08242 19.1931 10.9407 19.2018 14.8223V23.5017C19.2018 26.5974 19.2237 29.6888 19.1975 32.7933V32.7889Z" stroke="white" stroke-width="0.34676" stroke-miterlimit="10"/>
<path id="Vector_4" d="M16.4007 31.7252C15.4654 31.2997 14.5257 30.8742 13.5904 30.4444V23.6971C13.586 20.4972 11.6849 18.9602 9.28107 20.2801C6.72431 21.6738 4.1894 23.1197 1.64139 24.5525C1.31797 24.0792 1.08196 23.3889 1.07759 22.8809C1.07322 22.4901 1.06885 22.1037 1.06885 21.7129C1.67198 21.244 2.51986 20.7751 3.69553 20.1238C6.49267 18.5607 9.28544 16.9629 12.0869 15.4259C14.4907 14.1147 16.3919 15.643 16.405 18.843V25.994C16.405 27.9044 16.4138 29.8148 16.405 31.7252" fill="#0000FF"/>
<path id="Vector_5" d="M16.4007 31.7252C15.4654 31.2997 14.5257 30.8742 13.5904 30.4444V23.6971C13.586 20.4972 11.6849 18.9602 9.28107 20.2801C6.72431 21.6738 4.1894 23.1197 1.64139 24.5525C1.31797 24.0792 1.08196 23.3889 1.07759 22.8809C1.07322 22.4901 1.06885 22.1037 1.06885 21.7129C1.67198 21.244 2.51986 20.7751 3.69553 20.1238C6.49267 18.5607 9.28544 16.9629 12.0869 15.4259C14.4907 14.1147 16.3919 15.643 16.405 18.843V25.994C16.405 27.9044 16.4138 29.8148 16.405 31.7252H16.4007Z" stroke="white" stroke-width="0.34676" stroke-miterlimit="10"/>
<path id="Vector_6" d="M13.5859 23.6968V30.4441C9.75728 28.6856 5.95055 26.8837 2.15256 25.0471C1.97337 24.956 1.79418 24.7823 1.63684 24.5522C4.18486 23.1194 6.71539 21.6735 9.27652 20.2798C11.6803 18.9642 13.5815 20.4969 13.5902 23.6968" fill="#0000FF"/>
<path id="Vector_7" d="M13.5859 23.6968V30.4441C9.75728 28.6856 5.95055 26.8837 2.15256 25.0471C1.97337 24.956 1.79418 24.7823 1.63684 24.5522C4.18486 23.1194 6.71539 21.6735 9.27652 20.2798C11.6803 18.9642 13.5815 20.4969 13.5902 23.6968H13.5859Z" stroke="white" stroke-width="0.34676" stroke-miterlimit="10"/>
</g>
</svg>
