<svg width="25" height="29" viewBox="0 0 25 29" fill="none" xmlns="http://www.w3.org/2000/svg">
<g id="Group 1000001612">
<path id="Vector" d="M0.00415039 8.01366C0.00415039 7.60718 0.00887687 7.2007 0.00887687 6.79422C0.00887687 6.33102 0.00887687 5.86783 0.00415039 5.3999C0.00415039 5.8631 0.00415039 6.33102 0.0136034 6.79422C0.0136034 7.2007 0.0136034 7.60718 0.00415039 8.01366Z" fill="#0000FF"/>
<path id="Vector_2" d="M0.00394671 5.40484C0.00394671 4.30829 0.00394671 3.21174 0.0133997 2.11992C0.0228526 0.914664 1.10522 -0.00700423 2.13086 0.437287C5.12745 1.7418 8.10041 3.11249 11.0545 4.52098C11.3475 4.65805 11.6075 5.23941 11.6122 5.61753C11.6595 8.92136 11.6595 12.2252 11.6358 15.5337C11.6264 16.6303 10.6953 17.3534 9.72632 16.9281C6.64938 15.581 3.59135 14.182 0.556945 12.7356C0.278083 12.5986 0.0512115 12.003 0.0370321 11.6107C-0.00550625 10.4149 0.00394671 9.2144 0.00394671 8.01387C0.00394671 7.60739 0.00394671 7.20091 0.00394671 6.79443C0.00394671 6.33123 0.00394671 5.86331 0.00394671 5.40011" fill="#0000FF"/>
<path id="Vector_3" d="M0.0089278 17.9489C0.0183808 16.5688 1.11492 15.7417 2.3249 16.2663C4.91029 17.3912 7.48622 18.5445 10.0291 19.7734C10.393 19.9482 10.7664 20.5674 10.7948 21.0117C11.0264 24.1596 10.9933 24.1596 8.27082 25.4593C6.45112 26.329 4.63615 27.2129 2.81173 28.0636C1.25199 28.7915 0.0136543 27.9408 0.00420132 26.1636V22.1981C0.00420132 20.7848 -0.00525165 19.3669 0.00420132 17.9489" fill="#0000FF"/>
<path id="Vector_4" d="M12.7231 16.6729C12.7231 15.5764 12.7183 14.4845 12.7278 13.388C12.7373 12.1827 13.8196 11.2611 14.8453 11.7054C17.8419 13.0099 20.8148 14.3806 23.7689 15.7891C24.0619 15.9261 24.3219 16.5075 24.3266 16.8856C24.3739 20.1894 24.3739 23.498 24.3502 26.8018C24.3408 27.8984 23.4097 28.6215 22.4407 28.1961C19.3638 26.8491 16.3057 25.45 13.2713 24.0037C12.9925 23.8666 12.7656 23.2711 12.7514 22.8788C12.7089 21.683 12.7183 20.4825 12.7231 19.2819C12.7231 18.8755 12.7231 18.469 12.7231 18.0625C12.7231 17.5993 12.7231 17.1314 12.7231 16.6682" fill="#0000FF"/>
<path id="Vector_5" d="M24.3598 2.20504C24.3503 0.824898 23.2538 -0.00223979 22.0438 0.522402C19.4584 1.64731 16.8872 2.80058 14.3397 4.02947C13.9757 4.20435 13.6023 4.82352 13.574 5.26781C13.3424 8.41566 13.3754 8.41566 16.0979 9.71545C17.9176 10.5851 19.7326 11.469 21.557 12.3197C23.1215 13.0476 24.3598 12.1969 24.3645 10.4244V6.44943C24.3645 5.03621 24.374 3.61826 24.3645 2.20031" fill="#0000FF"/>
</g>
</svg>
