<svg width="22" height="34" viewBox="0 0 22 34" fill="none" xmlns="http://www.w3.org/2000/svg">
<path id="Vector" d="M21.9903 18.1448C22.0031 15.7807 22.0159 13.4165 21.9391 11.0524C21.9135 10.2818 21.4912 9.10627 20.9622 8.84069C15.2244 5.98894 9.44826 3.22863 3.63369 0.568456C1.80357 -0.271829 0.0417049 1.15187 0.0246409 3.31135C-0.0137532 9.83335 -0.0137532 16.3554 0.071567 22.873C0.084365 23.6262 0.574956 24.7669 1.12527 25.0412C6.70948 27.8233 12.3278 30.527 17.9888 33.1001C19.9256 33.9752 21.9733 32.1597 21.9861 29.7825C22.0031 27.623 21.9989 25.4592 21.9903 23.304V18.1448ZM18.2362 17.3132C18.2277 17.9097 18.2277 18.5018 18.2277 19.0895C18.2362 19.7687 18.2362 20.4392 18.2362 21.1141C18.2362 22.7076 18.2405 24.301 18.2277 25.8858C18.2149 27.6404 16.7047 28.9814 15.2799 28.3327C11.1077 26.4344 6.96544 24.4404 2.84874 22.3897C2.44773 22.1895 2.08086 21.3492 2.07659 20.7962C2.0126 15.9896 2.0126 11.1874 2.0382 6.38079C2.051 4.78294 3.34786 3.73803 4.70019 4.35191C8.98753 6.31112 13.2407 8.34871 17.4769 10.4559C17.8651 10.6519 18.1808 11.5139 18.1936 12.0886C18.2576 13.8258 18.2448 15.5673 18.2405 17.3132" fill="#0000FF"/>
</svg>
