<svg width="72" height="27" viewBox="0 0 72 27" fill="none" xmlns="http://www.w3.org/2000/svg">
<g id="Layer_1" clip-path="url(#clip0_2496_4370)">
<g id="1.1">
<path id="Vector" d="M10.95 14.7596C10.7342 15.2298 10.6109 15.4882 10.502 15.7465C9.26477 18.8262 8.04403 21.912 6.83972 25.0038C6.48418 25.9301 5.94368 26.3398 4.98599 26.3701C3.67277 26.4306 2.3431 26.5981 1.02987 26.7031C-0.0819566 26.7939 -0.190879 26.6728 0.226313 25.6254C1.75738 21.7707 3.2864 17.9322 4.81747 14.0775C6.03822 11.028 7.25897 7.96243 8.4345 4.89684C8.79004 3.98664 9.31615 3.54668 10.2882 3.48614C11.6015 3.40945 12.9311 3.27423 14.2444 3.07645C15.1404 2.93922 15.5576 3.27423 15.8206 4.06333C16.8092 6.93114 17.8285 9.80097 18.8499 12.6688C18.9424 12.9412 19.0657 13.2157 19.2835 13.7162C19.8549 12.2894 20.4282 10.8484 20.9996 9.40541C21.8196 7.3267 22.6539 5.26212 23.4411 3.18342C23.7349 2.42459 24.1973 2.06132 24.9701 1.99875C26.3758 1.87766 27.7835 1.71016 29.1893 1.57494C30.2703 1.46798 30.3792 1.62136 29.962 2.68291C27.504 8.9816 25.0358 15.2682 22.5594 21.5467C22.2347 22.3519 21.91 23.1552 21.6017 23.9745C21.3695 24.582 20.9687 24.9009 20.3193 24.9614C18.743 25.0986 17.1503 25.2339 15.574 25.4014C14.8486 25.4781 14.6472 25.0381 14.4622 24.4912C13.4737 21.6234 12.4687 18.7535 11.4494 15.8857C11.3261 15.583 11.1719 15.2641 10.9541 14.7636L10.95 14.7596Z" fill="#2630EA"/>
<path id="Vector_2" d="M39.2162 12.1198C39.0436 12.0895 38.8668 12.0734 38.6901 12.0734C37.3152 12.1198 37.2844 12.0875 37.8249 10.7071C38.1496 9.85744 38.5195 9.02192 38.8134 8.15814C39.0908 7.3529 39.5697 6.91294 40.3897 6.94321C41.0843 6.97348 41.4707 6.67076 41.6885 5.97247C41.9968 5.03201 42.4468 4.10567 42.7695 3.16521C43.0161 2.46692 43.4333 2.11778 44.1444 2.05724C45.4576 1.95027 46.7873 1.78479 48.1005 1.6637C48.9657 1.58701 49.1055 1.77066 48.7951 2.60416C48.3779 3.7424 47.9299 4.8645 47.4038 6.2308L50.0611 5.97247C50.4475 5.9422 50.8174 5.89578 51.2037 5.86551C51.7299 5.81909 51.884 6.10769 51.7134 6.57792C51.2346 7.83726 50.7866 9.09659 50.1988 10.3115C50.0447 10.6445 49.4569 10.9493 49.0561 11.0098C48.0676 11.1914 47.0627 11.2076 46.0742 11.3428C45.7967 11.3892 45.3487 11.5547 45.2706 11.7686C44.4362 13.8171 43.647 15.8655 42.8599 17.9301L45.9817 17.6415C47.3107 17.5204 47.7176 18.1023 47.2024 19.3872C46.8941 20.1763 46.5694 20.9654 46.2899 21.7707C46.0742 22.3781 45.6878 22.6667 45.0836 22.7111C43.1518 22.8786 41.2199 23.0744 39.2737 23.2116C36.8322 23.6052 35.7964 21.3912 36.4767 19.4175C37.2186 17.2782 38.0694 15.1672 38.8874 13.0582C39.0127 12.7495 39.1196 12.4367 39.2121 12.1178L39.2162 12.1198Z" fill="#2630EA"/>
<path id="Vector_3" d="M56.8653 18.1763C55.9076 19.254 55.104 20.1036 54.3621 20.9997C53.7744 21.7121 53.1106 22.0774 52.1981 22.1218C50.5601 22.2126 48.9058 22.3943 47.2678 22.5456C46.9596 22.5759 46.6492 22.5618 46.0923 22.5759C46.4622 22.1359 46.6492 21.8776 46.865 21.6657C49.3373 19.2984 51.7953 16.9311 54.2984 14.6082C55.0403 13.926 55.2417 13.363 54.8862 12.4528C54.1751 10.5396 53.5257 8.62837 52.8475 6.70102C52.5844 5.98861 52.8475 5.73029 53.5421 5.6536L59.0745 5.10667C59.6623 5.04613 59.9706 5.28831 60.1412 5.83523C61.701 10.5698 63.267 15.3045 64.8392 20.0411C65.055 20.6788 64.8084 20.9513 64.2062 21.0118L58.2258 21.5587C57.6544 21.6193 57.3749 21.3468 57.2825 20.7999C57.19 20.0108 57.0502 19.252 56.8653 18.1743V18.1763Z" fill="#2630EA"/>
<path id="Vector_4" d="M28.0897 24.2752C27.395 24.3357 26.684 24.3963 25.9873 24.473C25.231 24.5497 25.044 24.2611 25.3378 23.5466C26.3572 20.9674 27.3724 18.3862 28.3835 15.807C29.296 13.5002 30.2064 11.1935 31.0881 8.88669C31.3655 8.14401 31.7992 7.7646 32.6027 7.70203C33.8543 7.62534 35.1223 7.45985 36.3883 7.33876C37.4384 7.2318 37.5474 7.36904 37.1446 8.38619C35.5374 12.5335 33.9139 16.6728 32.276 20.7999C31.9821 21.5587 31.6574 22.3176 31.3799 23.0764C31.1477 23.7283 30.7161 24.0471 30.0359 24.0774C29.3864 24.138 28.737 24.2146 28.0897 24.2752Z" fill="#2630EA"/>
<path id="Vector_5" d="M71.4999 4.03302C71.1916 4.39629 71.0046 4.64048 70.7888 4.85239C68.7337 6.90083 66.6621 8.96541 64.5761 10.9977C63.8507 11.7101 63.6184 11.6798 63.2937 10.7858C62.969 9.89174 62.6443 8.99568 62.3196 8.11374C62.2394 7.92605 62.1983 7.72424 62.1963 7.52242C62.2436 6.81001 64.2679 4.60819 64.9933 4.53352C66.9868 4.32161 68.9803 4.12383 70.9737 3.9422C71.1505 3.95835 71.3272 3.98862 71.4999 4.03302Z" fill="#2630EA"/>
<path id="Vector_6" d="M35.2453 5.88368C34.5507 5.96037 33.8396 6.00477 33.1429 6.09559C32.4935 6.18641 32.2469 5.92808 32.4791 5.30649C32.8963 4.16824 33.33 3.03 33.854 1.93817C34.0842 1.56885 34.4582 1.30649 34.8898 1.20962C36.312 0.997708 37.7649 0.876618 39.2015 0.739383C39.8653 0.662693 40.0359 0.981563 39.8036 1.5749C39.37 2.68287 38.9836 3.80497 38.474 4.86855C38.3034 5.21769 37.7793 5.53656 37.3765 5.6415C36.6654 5.82314 35.9544 5.80901 35.2433 5.88368H35.2453Z" fill="#2630EA"/>
<path id="Vector_7" d="M10.95 14.7596C10.7342 15.2298 10.6109 15.4882 10.502 15.7465C9.26477 18.8262 8.04403 21.912 6.83972 25.0038C6.48418 25.9301 5.94368 26.3398 4.98599 26.3701C3.67277 26.4306 2.3431 26.5981 1.02987 26.7031C-0.0819566 26.7939 -0.190879 26.6728 0.226313 25.6254C1.75738 21.7707 3.2864 17.9322 4.81747 14.0775C6.03822 11.028 7.25897 7.96243 8.4345 4.89684C8.79004 3.98664 9.31615 3.54668 10.2882 3.48614C11.6015 3.40945 12.9311 3.27423 14.2444 3.07645C15.1404 2.93922 15.5576 3.27423 15.8206 4.06333C16.8092 6.93114 17.8285 9.80097 18.8499 12.6688C18.9424 12.9412 19.0657 13.2157 19.2835 13.7162C19.8549 12.2894 20.4282 10.8484 20.9996 9.40541C21.8196 7.3267 22.6539 5.26212 23.4411 3.18342C23.7349 2.42459 24.1973 2.06132 24.9701 1.99875C26.3758 1.87766 27.7835 1.71016 29.1893 1.57494C30.2703 1.46798 30.3792 1.62136 29.962 2.68291C27.504 8.9816 25.0358 15.2682 22.5594 21.5467C22.2347 22.3519 21.91 23.1552 21.6017 23.9745C21.3695 24.582 20.9687 24.9009 20.3193 24.9614C18.743 25.0986 17.1503 25.2339 15.574 25.4014C14.8486 25.4781 14.6472 25.0381 14.4622 24.4912C13.4737 21.6234 12.4687 18.7535 11.4494 15.8857C11.3261 15.583 11.1719 15.2641 10.9541 14.7636L10.95 14.7596Z" fill="#2630EA"/>
<path id="Vector_8" d="M39.2162 12.1198C39.0436 12.0895 38.8668 12.0734 38.6901 12.0734C37.3152 12.1198 37.2844 12.0875 37.8249 10.7071C38.1496 9.85744 38.5195 9.02192 38.8134 8.15814C39.0908 7.3529 39.5697 6.91294 40.3897 6.94321C41.0843 6.97348 41.4707 6.67076 41.6885 5.97247C41.9968 5.03201 42.4468 4.10567 42.7695 3.16521C43.0161 2.46692 43.4333 2.11778 44.1444 2.05724C45.4576 1.95027 46.7873 1.78479 48.1005 1.6637C48.9657 1.58701 49.1055 1.77066 48.7951 2.60416C48.3779 3.7424 47.9299 4.8645 47.4038 6.2308L50.0611 5.97247C50.4475 5.9422 50.8174 5.89578 51.2037 5.86551C51.7299 5.81909 51.884 6.10769 51.7134 6.57792C51.2346 7.83726 50.7866 9.09659 50.1988 10.3115C50.0447 10.6445 49.4569 10.9493 49.0561 11.0098C48.0676 11.1914 47.0627 11.2076 46.0742 11.3428C45.7967 11.3892 45.3487 11.5547 45.2706 11.7686C44.4362 13.8171 43.647 15.8655 42.8599 17.9301L45.9817 17.6415C47.3107 17.5204 47.7176 18.1023 47.2024 19.3872C46.8941 20.1763 46.5694 20.9654 46.2899 21.7707C46.0742 22.3781 45.6878 22.6667 45.0836 22.7111C43.1518 22.8786 41.2199 23.0744 39.2737 23.2116C36.8322 23.6052 35.7964 21.3912 36.4767 19.4175C37.2186 17.2782 38.0694 15.1672 38.8874 13.0582C39.0127 12.7495 39.1196 12.4367 39.2121 12.1178L39.2162 12.1198Z" fill="#2630EA"/>
<path id="Vector_9" d="M56.8653 18.1763C55.9076 19.254 55.104 20.1036 54.3621 20.9997C53.7744 21.7121 53.1106 22.0774 52.1981 22.1218C50.5601 22.2126 48.9058 22.3943 47.2678 22.5456C46.9596 22.5759 46.6492 22.5618 46.0923 22.5759C46.4622 22.1359 46.6492 21.8776 46.865 21.6657C49.3373 19.2984 51.7953 16.9311 54.2984 14.6082C55.0403 13.926 55.2417 13.363 54.8862 12.4528C54.1751 10.5396 53.5257 8.62837 52.8475 6.70102C52.5844 5.98861 52.8475 5.73029 53.5421 5.6536L59.0745 5.10667C59.6623 5.04613 59.9706 5.28831 60.1412 5.83523C61.701 10.5698 63.267 15.3045 64.8392 20.0411C65.055 20.6788 64.8084 20.9513 64.2062 21.0118L58.2258 21.5587C57.6544 21.6193 57.3749 21.3468 57.2825 20.7999C57.19 20.0108 57.0502 19.252 56.8653 18.1743V18.1763Z" fill="#2630EA"/>
<path id="Vector_10" d="M28.0897 24.2752C27.395 24.3357 26.684 24.3963 25.9873 24.473C25.231 24.5497 25.044 24.2611 25.3378 23.5466C26.3572 20.9674 27.3724 18.3862 28.3835 15.807C29.296 13.5002 30.2064 11.1935 31.0881 8.88669C31.3655 8.14401 31.7992 7.7646 32.6027 7.70203C33.8543 7.62534 35.1223 7.45985 36.3883 7.33876C37.4384 7.2318 37.5474 7.36904 37.1446 8.38619C35.5374 12.5335 33.9139 16.6728 32.276 20.7999C31.9821 21.5587 31.6574 22.3176 31.3799 23.0764C31.1477 23.7283 30.7161 24.0471 30.0359 24.0774C29.3864 24.138 28.737 24.2146 28.0897 24.2752Z" fill="#2630EA"/>
<path id="Vector_11" d="M71.4999 4.03302C71.1916 4.39629 71.0046 4.64048 70.7888 4.85239C68.7337 6.90083 66.6621 8.96541 64.5761 10.9977C63.8507 11.7101 63.6184 11.6798 63.2937 10.7858C62.969 9.89174 62.6443 8.99568 62.3196 8.11374C62.2394 7.92605 62.1983 7.72424 62.1963 7.52242C62.2436 6.81001 64.2679 4.60819 64.9933 4.53352C66.9868 4.32161 68.9803 4.12383 70.9737 3.9422C71.1505 3.95835 71.3272 3.98862 71.4999 4.03302Z" fill="#2630EA"/>
<path id="Vector_12" d="M35.2453 5.88368C34.5507 5.96037 33.8396 6.00477 33.1429 6.09559C32.4935 6.18641 32.2469 5.92808 32.4791 5.30649C32.8963 4.16824 33.33 3.03 33.854 1.93817C34.0842 1.56885 34.4582 1.30649 34.8898 1.20962C36.312 0.997708 37.7649 0.876618 39.2015 0.739383C39.8653 0.662693 40.0359 0.981563 39.8036 1.5749C39.37 2.68287 38.9836 3.80497 38.474 4.86855C38.3034 5.21769 37.7793 5.53656 37.3765 5.6415C36.6654 5.82314 35.9544 5.80901 35.2433 5.88368H35.2453Z" fill="#2630EA"/>
</g>
</g>
<defs>
<clipPath id="clip0_2496_4370">
<rect width="71.5" height="26" fill="white" transform="translate(0 0.727295)"/>
</clipPath>
</defs>
</svg>
