<svg width="22" height="34" viewBox="0 0 22 34" fill="none" xmlns="http://www.w3.org/2000/svg">
<path id="Vector" d="M21.9906 23.3041C21.9948 25.4645 21.9991 27.6206 21.9821 29.781C21.9693 32.1583 19.921 33.9761 17.9875 33.0997C12.3271 30.5272 6.70912 27.8245 1.12519 25.0437C0.57699 24.7704 0.0840399 23.6294 0.0712912 22.8789C-0.0137002 16.3586 -0.0137002 9.83824 0.0245459 3.31357C0.0415442 1.1488 1.80512 -0.269798 3.63243 0.567477C9.4416 3.22246 15.2168 5.9859 20.9579 8.84045C21.4849 9.10942 21.9098 10.2851 21.9353 11.0573C22.0161 13.4173 22.0033 15.7859 21.9906 18.1503C21.9863 18.9485 21.9863 19.7554 21.9863 20.5536C21.9906 21.4733 21.9906 22.3887 21.9906 23.2997" fill="#0000FF"/>
</svg>
