<svg width="22" height="34" viewBox="0 0 22 34" fill="none" xmlns="http://www.w3.org/2000/svg">
<path id="Vector" d="M21.988 20.5587C21.988 19.756 21.988 18.9532 21.9965 18.1504C22.0008 15.7898 22.0135 13.4206 21.937 11.06C21.9115 10.2919 21.4866 9.11598 20.9554 8.84694C15.2229 5.99168 9.44783 3.2232 3.63881 0.567539C1.80729 -0.269948 0.0437607 1.14901 0.0310123 3.31432C-0.0157319 9.84065 -0.0157319 16.3626 0.0735069 22.8803C0.0820059 23.631 0.574944 24.7722 1.12313 25.0456C6.70693 27.8228 12.3247 30.5305 17.985 33.0994C19.9228 33.9759 21.9668 32.1621 21.9795 29.7798C21.9965 27.6188 21.9923 25.4578 21.9923 23.2968C21.9923 22.3856 21.9923 21.47 21.9838 20.5501M8.04126 22.8542C8.04126 23.8436 7.09788 24.4685 6.31597 24.0042C4.77342 23.0886 3.26486 22.1903 1.77754 21.2574C1.56082 21.1272 1.43334 20.6455 1.42059 20.3288C1.38659 18.541 1.40784 16.7488 1.39934 14.961V12.3401C1.39934 11.559 2.01126 10.9602 2.71243 11.047C4.18274 11.2379 5.59781 11.4245 7.00864 11.5981C7.59506 11.6762 8.04126 12.2359 8.04126 12.8912V22.8542ZM15.1591 20.7323C15.1591 21.6826 14.2752 22.3118 13.4976 21.9169C12.2185 21.2617 10.9691 20.6195 9.73255 19.9512C9.55407 19.8514 9.42658 19.4522 9.42233 19.1832C9.39684 17.8033 9.40959 16.4234 9.41384 15.0391V12.5614C9.41384 11.789 10.0173 11.1815 10.7057 11.2683C11.853 11.3985 12.9749 11.5286 14.1095 11.6632C14.7087 11.7326 15.1634 12.2967 15.1634 12.9606V20.7367L15.1591 20.7323ZM20.5942 18.3066C20.5942 19.2483 19.723 19.8818 18.9454 19.5043C18.138 19.1094 17.3518 18.7189 16.5742 18.3153C16.3957 18.2242 16.2172 17.9031 16.2087 17.6818C16.1875 16.0502 16.1875 14.4099 16.196 12.7046C16.196 11.9279 16.7952 11.3247 17.4878 11.4115C18.1805 11.4896 18.8647 11.5677 19.5403 11.6458C20.1395 11.7152 20.5899 12.2793 20.5899 12.9476V18.311L20.5942 18.3066Z" fill="black"/>
</svg>
