<svg width="23" height="34" viewBox="0 0 23 34" fill="none" xmlns="http://www.w3.org/2000/svg">
<g id="Group 1000001610">
<path id="Vector" d="M6.06229 7.53857C5.16861 10.4211 4.23551 13.2861 3.31993 16.1599C2.42625 18.9592 1.5282 21.7584 0.638901 24.5577C0.310344 24.0846 0.0737822 23.3925 0.0694014 22.8799C-0.0138331 16.3614 -0.0138331 9.83846 0.0255938 3.31554C0.0387361 1.15145 1.84361 -0.27229 3.70544 0.568812C8.38847 2.66281 13.0452 4.82689 17.6801 7.04792C17.6494 7.1224 17.6187 7.20125 17.5925 7.28887C16.9923 9.22953 16.3658 11.1527 15.7438 13.0846C15.3364 14.3506 14.9246 15.6123 14.4471 17.0973C14.2894 16.6023 14.1886 16.3307 14.1098 16.046C13.3168 13.1722 12.5064 10.3072 11.7398 7.42467C11.5251 6.64052 11.2053 6.27691 10.5175 6.32072C9.50557 6.38205 8.48923 6.38643 7.47728 6.33824C6.72816 6.3032 6.32513 6.67994 6.05791 7.53857" fill="#0000FF"/>
<path id="Vector_2" d="M22.4504 23.3C22.4504 25.4597 22.4636 27.6238 22.4417 29.7791C22.4241 32.1579 20.3345 33.9759 18.3588 33.0997C13.8729 31.1021 9.40889 29.0256 4.9668 26.8922C5.85171 24.0097 6.7892 21.1535 7.70916 18.2928C7.78801 18.0431 7.88877 17.8022 8.05085 17.3641C8.21732 17.8723 8.33999 18.1877 8.43198 18.5119C9.22052 21.39 10.0091 24.2638 10.7888 27.1463C10.9334 27.6808 11.0955 28.1364 11.6562 28.1188C12.8785 28.0882 14.0963 28.0969 15.3098 28.0969C15.8004 28.0969 16.1115 27.8122 16.2867 27.2471C16.5233 26.4848 16.7773 25.7357 17.0183 24.9735C18.6654 19.8129 20.317 14.6524 21.9598 9.48755C22.2139 9.96067 22.3803 10.5827 22.3979 11.0559C22.4811 13.4171 22.4636 15.7827 22.4548 18.1483C22.4548 18.9499 22.4548 19.756 22.4548 20.5533C22.4548 21.4689 22.4548 22.3888 22.4548 23.3" fill="#0000FF"/>
</g>
</svg>
